<!-- Generated by IcoMoon.io -->
<svg version="1.1" xmlns="http://www.w3.org/2000/svg" width="497" height="128" viewBox="0 0 497 128">
<title>logo-yc-kit</title>
<path fill="#000" d="M404.019 13.388c0.663 8.308 8.848 12.133 17.757 8.374 5.496-2.339 8.025-5.938 8.025-11.47 0-3.728-0.38-4.55-3.157-6.982-2.812-2.463-3.728-2.781-8.118-2.781-3.347 0-6.035 0.57-8.087 1.61-4.833 2.622-6.889 6.191-6.412 11.248z"></path>
<path fill="#000" d="M227.604 60.996v11.404c13.68 0.128 21.294 0.221 22.811 0.221 26.128 0.252 25.115 0.504 25.115-6.92 0-3.886-0.283-4.391-2.432-5.116-2.494-0.884-34.215-0.884-41.29-0.093-0.57 0.062-1.959 0.221-4.201 0.504z"></path>
<path fill="#000" d="M457.314 24.95c-0.349 1.137-0.632 4.488-0.725 7.486 0 0.38-0.031 2.18-0.093 5.465l-9.763 0.504c-0.19 2.083-0.283 3.254-0.283 3.475-0.283 3.095 0 3.506 2.149 4.232 1.296 0.504 3.603 0.822 5.023 0.822 0.159 0 1.043 0 2.591 0 0.349 13.521 0.535 21.042 0.57 22.559 0.632 28.653 2.021 34.184 9.48 37.217 7.265 3.002 17.408 0.884 25.115-5.372 2.781-2.308 5.12-4.422 5.12-4.74s-0.725-1.389-1.579-2.37c-1.579-1.614-1.769-1.614-6.128-0.314-5.969 1.707-8.56 0.725-9.321-3.569-0.38-1.707-0.632-11.974-0.632-22.714 0-1.326 0-7.897 0-19.712 4.74-0.349 7.362-0.539 7.897-0.57 7.424-0.473 7.897-0.663 8.467-2.591 0.38-1.167 0.283-3.095-0.19-4.232-0.853-2.056-1.199-2.118-8.18-2.37-0.504-0.031-2.936-0.093-7.362-0.252 0.411-5.655 0.601-8.813 0.663-9.445 0.38-5.213 0.725-9.856 0.822-10.267 0.283-1.358-2.021-1.358-8.658-0.062-7.994 1.454-14.123 4.298-14.976 6.823z"></path>
<path fill="#1ea7fd" d="M324.721 48.832c-0.314 0.473-1.897 2.75-4.74 6.889-0.159-11.404-0.252-17.722-0.283-18.987-0.159-14.061-0.504-19.177-1.296-19.619-0.504-0.314-7.331-0.601-15.038-0.601-13.207 0-14.092 0.062-14.945 1.517-0.504 0.853-0.694 2.75-0.349 4.201 0.442 2.052 1.199 2.905 3.728 3.949 1.8 0.853 3.79 2.529 4.643 4.046 1.486 2.529 1.579 5.182 1.296 39.839-0.252 30.58-0.062 37.279 0.884 37.597 1.645 0.539 15.829 0.473 19.080-0.062 0.19-0.031 1.106-0.221 2.781-0.539l-1.199-37.849c2.529-2.75 3.949-4.267 4.232-4.581 2.242-2.494 4.232-4.488 4.329-4.422 0.062 0.093 1.99 4.422 4.232 9.697 2.242 5.244 6.381 13.584 9.224 18.451 10.55 18.168 19.208 23.948 29.824 20.061 4.077-1.517 8.56-4.488 10.298-6.92 1.296-1.707 1.296-1.99 0-3.665-1.199-1.707-1.548-1.769-3.98-1.012-3.634 1.234-6.035-0.062-12.354-6.699-4.678-4.895-28.529-35.541-29.665-38.008-0.853-1.959 14.026-17.85 18.859-20.061 5.341-2.432 9.511-0.221 10.616 5.876 0.062 0.221 0.252 1.264 0.601 3.126 2.304-0.221 3.568-0.349 3.825-0.38 10.616-0.977 16.586-10.837 11.501-18.828-3.887-6.098-14.534-8.087-23.695-4.298-9.666 3.98-21.074 14.879-32.415 31.275z"></path>
<path fill="#000" d="M400.858 38.123c-5.496 1.738-5.969 2.056-6.226 4.581-0.283 2.021 0 2.591 1.392 2.591 0.915 0 3.157 0.411 5.023 0.822 5.655 1.389 5.748 2.211 5.306 32.981-0.031 1.8-0.159 10.899-0.38 27.264 1.897 0.283 2.936 0.442 3.157 0.473 3.254 0.57 17.311-0.062 18.704-0.791 1.106-0.663 1.959-49.602 1.012-58.542-0.442-4.391-1.392-9.034-2.021-10.174-1.423-2.529-4.011-2.874-13.87-1.707-3.347 0.38-8.848 1.548-12.102 2.494z"></path>
<path fill="#000" d="M145.304 64.316c-1.486 22.59 8.246 40.945 24.832 46.883 12.889 4.519 26.159 0.791 35.669-10.046 3.444-4.011 3.603-5.434 0.946-8.844-0.159-0.159-0.791-0.981-1.99-2.494-2.494 2.401-3.887 3.758-4.139 4.011-7.773 7.521-14.941 9.034-21.706 4.612-10.108-6.509-16.24-25.274-14.278-43.757 1.012-9.732 3.064-15.135 7.141-18.544 2.75-2.308 3.696-2.622 8.246-2.211 7.707 0.601 12.102 5.624 12.827 14.658 0.221 4.108 0.694 5.213 2.277 6.097 4.391 2.622 11.47 0 13.331-4.895 1.423-3.506 1.264-8.623-0.314-12.765-3.603-9.825-19.46-16.838-32.446-14.344-17.187 3.413-28.909 19.46-30.394 41.639z"></path>
<path fill="#04b842" d="M0.009 14.683c-0.159-3.413 2.971-6.287 7.013-6.509 10.457-0.539 93.987-4.926 104.413-5.465 4.139-0.221 7.676 2.401 7.928 5.876 0.031 0.128 0.031 0.252 0.031 0.38 0 11.214 0 101.004 0 112.248 0 3.444-3.347 6.257-7.486 6.257-0.093 0-0.221 0-0.314 0-9.984-0.38-89.848-3.382-99.832-3.758-3.886-0.159-6.982-2.75-7.141-6.035 0 0-4.139-92.691-4.612-102.993z"></path>
<path fill="#fff" d="M23.262 38.631c-0.062 0.093 5.97 9.003 13.428 19.809 0.915 1.327 5.434 7.866 13.553 19.681 0 6.668 0 10.364 0 11.090 0 6.633 0.093 11.279 0.19 11.501 0.884 1.676 10.616 2.622 19.429 1.862 4.771-0.38 7.362-1.043 7.835-2.021 0.128-0.221 0.221-4.864 0.221-11.753 0-0.756 0-4.55 0-11.373 7.804-11.625 12.133-18.071 13.017-19.367 7.172-10.616 12.951-19.429 12.92-19.557-0.252-0.442-5.182-0.946-11.373-1.105-8.529-0.19-15.1 0.694-17.028 2.37-0.38 0.283-2.529 3.949-5.907 10.046-2.936 5.275-5.372 9.573-5.434 9.573-0.093 0-2.118-4.108-4.519-9.131-2.401-4.992-4.612-9.414-4.864-9.825-0.283-0.38-0.725-0.853-1.043-1.043-1.738-0.977-5.876-1.8-10.046-1.959-5.116-0.159-7.866-0.159-9.984-0.062-5.244 0.314-10.108 0.915-10.395 1.264z"></path>
<path fill="#fff" d="M88.879 3.625l14.344-0.946c0.38 8.91 0.57 13.87 0.601 14.848 0.031 0.535-0.442 0.946-1.074 0.981-0.252 0-0.504-0.062-0.725-0.19-0.349-0.252-2.211-1.486-5.527-3.665-3.918 2.494-6.097 3.886-6.54 4.17-0.504 0.314-1.198 0.221-1.548-0.19-0.19-0.159-0.252-0.38-0.252-0.601 0 0 0.252-4.802 0.725-14.406z"></path>
</svg>
